<svg xmlns="http://www.w3.org/2000/svg" version="1.0" width="383.000000pt" height="65.000000pt" viewBox="0 0 383.000000 65.000000" preserveAspectRatio="xMidYMid meet">

<g transform="translate(0.000000,65.000000) scale(0.100000,-0.100000)" fill="#ffdb58" stroke="none">
<path d="M335 626 c-91 -29 -182 -100 -229 -180 -34 -58 -59 -152 -53 -194 5 -27 1 -42 -19 -67 -74 -98 -19 -185 116 -185 80 0 134 23 188 79 45 47 98 144 135 247 25 69 25 73 8 88 -27 24 -36 20 -49 -26 -28 -93 -65 -152 -115 -182 -65 -40 -136 -47 -167 -16 -30 30 -14 40 69 40 55 0 62 2 51 15 -15 17 -85 20 -126 5 l-27 -11 6 54 c14 142 161 301 296 323 50 8 71 -7 71 -50 0 -20 -11 -45 -31 -69 l-32 -38 38 3 c45 4 72 34 81 90 5 30 2 41 -19 62 -23 23 -34 26 -89 25 -35 0 -81 -6 -103 -13z m-10 -476 c-26 -51 -90 -106 -139 -120 -52 -14 -110 -1 -126 30 -15 27 -12 83 4 106 14 19 15 19 47 0 43 -26 122 -25 179 1 25 11 46 19 48 17 2 -1 -4 -16 -13 -34z" fill="#ffdb58"/>
<path d="M2302 614 c-59 -29 -107 -80 -134 -142 -22 -49 -21 -54 10 -45 15 3 30 22 43 53 11 26 40 66 64 90 37 36 51 43 86 44 57 1 69 -19 47 -78 -9 -25 -32 -69 -52 -100 l-35 -55 -38 11 c-88 24 -231 -13 -293 -77 -36 -37 -51 -106 -31 -143 11 -21 66 -42 111 -42 50 0 132 49 208 125 74 75 75 75 108 65 38 -13 40 -20 19 -80 -20 -56 -19 -83 4 -104 18 -16 19 -15 25 24 3 22 13 58 22 80 14 35 18 38 36 29 11 -6 27 -8 36 -4 14 5 12 9 -10 21 -16 8 -28 21 -28 30 0 20 54 126 107 207 35 55 41 72 32 83 -33 40 -64 4 -151 -178 -23 -49 -47 -88 -53 -88 -6 0 -19 6 -29 13 -16 12 -15 18 23 87 54 103 61 141 27 174 -33 34 -86 34 -154 0z m-2 -272 c0 -15 -104 -115 -149 -144 -75 -47 -161 -34 -161 25 0 37 29 68 94 98 51 24 74 29 139 29 42 0 77 -4 77 -8z" fill="#ffdb58"/>
<path d="M1837 530 c-14 -40 -26 -54 -53 -67 -39 -19 -47 -37 -10 -23 24 9 24 9 -9 -62 -39 -84 -75 -132 -115 -153 -33 -17 -56 -12 -63 16 -4 15 4 24 33 39 72 37 125 108 105 141 -10 16 -88 6 -121 -16 -14 -9 -38 -37 -52 -62 -32 -54 -90 -123 -104 -123 -14 0 -1 52 29 116 37 82 12 115 -59 77 -29 -17 -38 -18 -38 -7 0 22 -45 27 -79 9 -28 -14 -33 -14 -47 0 -26 26 -38 17 -63 -47 -25 -63 -83 -138 -107 -138 -25 0 -15 26 41 100 30 40 55 77 55 82 0 18 -33 20 -67 4 -39 -19 -53 -15 -33 9 11 13 10 19 -5 35 -18 20 -19 20 -42 -20 -13 -22 -22 -44 -18 -49 8 -14 -80 -147 -106 -162 -21 -11 -22 -10 -16 25 3 20 17 61 31 91 22 49 23 56 10 70 -27 26 -42 17 -60 -37 -19 -61 -66 -133 -94 -148 -17 -9 -20 -7 -20 12 0 13 13 53 29 89 30 70 27 99 -9 99 -26 0 -90 -191 -74 -218 17 -27 58 -26 90 1 l28 25 11 -22 c15 -31 57 -32 93 -1 17 14 49 55 71 90 23 36 45 65 50 65 5 0 18 3 27 7 13 5 7 -8 -18 -43 -48 -66 -61 -99 -48 -125 15 -27 59 -24 104 6 33 22 36 23 36 6 0 -20 25 -35 41 -25 5 3 9 12 9 21 0 39 27 100 61 135 53 56 62 48 34 -27 -29 -77 -32 -120 -8 -129 18 -7 33 9 33 39 1 35 36 100 71 129 40 34 46 24 21 -35 -31 -72 -35 -104 -17 -123 25 -24 59 -19 94 13 17 16 31 25 31 20 0 -25 42 -49 85 -49 35 0 51 6 80 31 30 27 35 28 35 12 0 -56 60 -57 111 -3 50 52 76 100 55 100 -8 0 -17 -8 -20 -18 -8 -24 -71 -92 -85 -92 -18 0 -4 44 49 157 l48 102 53 3 c33 2 54 8 57 17 3 10 -6 12 -42 9 -45 -3 -47 -2 -41 20 7 27 -10 52 -34 52 -11 0 -23 -18 -34 -50z m-137 -131 c0 -37 -88 -124 -107 -106 -9 9 26 65 57 91 34 28 50 33 50 15z" fill="#ffdb58"/>
<path d="M2897 530 c-14 -40 -26 -54 -53 -67 -19 -9 -34 -20 -34 -25 0 -11 7 -10 31 2 24 14 24 14 -10 -56 -41 -81 -58 -150 -45 -172 17 -27 58 -26 92 3 30 25 31 26 42 6 16 -32 54 -36 95 -12 34 20 35 20 45 1 17 -32 66 -26 104 13 l33 32 30 -32 c42 -46 80 -45 131 5 24 22 45 54 52 79 12 37 11 48 -5 83 -16 35 -22 40 -52 40 -61 0 -119 -43 -147 -111 -16 -39 -68 -99 -85 -99 -20 0 -2 49 66 190 48 99 63 138 56 150 -15 22 -42 24 -49 3 -4 -10 -19 -46 -34 -79 l-28 -61 -50 5 c-47 4 -52 2 -94 -36 -25 -23 -55 -62 -68 -88 -29 -55 -73 -95 -78 -70 -5 23 15 80 59 168 l39 77 52 3 c32 2 53 8 56 17 3 10 -6 12 -42 9 -45 -3 -47 -2 -41 20 7 27 -10 52 -34 52 -11 0 -23 -18 -34 -50z m209 -134 c7 -18 -36 -102 -69 -138 -50 -54 -81 -26 -52 47 30 79 104 135 121 91z m264 5 c0 -5 -7 -11 -15 -15 -8 -3 -15 -15 -15 -26 0 -24 8 -25 32 -3 17 15 18 15 18 -1 0 -48 -58 -136 -90 -136 -57 0 -52 100 8 163 25 26 62 37 62 18z" fill="#ffdb58"/>
<path d="M3763 437 c-47 -54 -123 -173 -123 -194 0 -31 32 -53 77 -53 56 0 67 17 74 116 3 58 10 89 22 102 22 24 21 39 -2 52 -16 8 -24 4 -48 -23z m-33 -117 c0 -26 -2 -29 -14 -18 -10 10 -11 17 -2 30 15 24 16 23 16 -12z m5 -79 c-5 -24 -12 -31 -30 -31 -25 0 -44 35 -28 50 8 8 54 18 61 14 2 -2 1 -16 -3 -33z" fill="#ffdb58"/>
<path d="M558 405 c-42 -28 -78 -89 -78 -130 0 -38 50 -85 91 -85 25 0 42 10 75 45 51 52 63 98 42 153 -12 33 -18 37 -53 40 -30 2 -50 -4 -77 -23z m92 -4 c0 -5 -7 -11 -15 -15 -8 -3 -15 -15 -15 -26 0 -24 8 -25 32 -3 17 15 18 15 18 -5 0 -33 -19 -75 -48 -104 -28 -30 -51 -35 -70 -16 -38 38 29 178 85 178 7 0 13 -4 13 -9z" fill="#ffdb58"/>
<path d="M2644 411 c-43 -26 -75 -74 -81 -121 -5 -34 -1 -43 25 -70 43 -42 80 -40 130 8 52 49 71 107 51 159 -13 34 -19 38 -54 41 -26 1 -51 -4 -71 -17z m86 -10 c0 -5 -7 -11 -15 -15 -8 -3 -15 -15 -15 -26 0 -24 8 -25 32 -3 17 15 18 15 18 -6 0 -46 -58 -131 -90 -131 -58 0 -51 98 13 168 20 22 57 30 57 13z" fill="#ffdb58"/>
<path d="M3511 405 c-50 -36 -83 -88 -88 -138 -5 -41 -3 -47 22 -63 22 -14 32 -16 56 -7 33 13 33 13 17 -22 -11 -23 -15 -25 -60 -19 -88 12 -168 -34 -168 -97 0 -30 14 -45 53 -54 47 -12 96 4 141 45 l42 39 30 -19 c35 -24 57 -25 74 -5 10 11 6 17 -22 29 -64 29 -64 25 -4 132 l56 99 -21 18 c-30 24 -35 22 -52 -20 -18 -45 -61 -93 -83 -93 -24 0 -27 28 -8 78 33 87 106 133 120 77 3 -14 10 -25 15 -25 13 0 11 44 -3 58 -21 21 -81 14 -117 -13z m-36 -295 c3 -5 -11 -27 -31 -50 -30 -33 -43 -40 -75 -40 -62 0 -76 58 -21 89 22 13 119 14 127 1z" fill="#ffdb58"/>
</g>
</svg>