<svg version="1.1" xmlns="http://www.w3.org/2000/svg" xmlns:xlink="http://www.w3.org/1999/xlink" width="512.000000pt" height="512.000000pt" viewBox="0,0,256,256"><g fill="#fdf9d6" fill-rule="nonzero" stroke="none" stroke-width="1" stroke-linecap="butt" stroke-linejoin="miter" stroke-miterlimit="10" stroke-dasharray="" stroke-dashoffset="0" font-family="none" font-weight="none" font-size="none" text-anchor="none" style="mix-blend-mode: normal"><g transform="translate(-0.00551,-0.01038) scale(0.5,0.5)"><g transform="translate(0,512) scale(0.1,-0.1)"><path d="M2568,4351c-44,-39 -45,-97 -4,-156l28,-40l-5,-140c-4,-111 -14,-188 -50,-375c-62,-319 -70,-381 -65,-512c5,-133 28,-203 84,-261c30,-31 43,-37 78,-37c50,0 83,21 102,65c15,37 10,66 -23,116c-48,73 -41,202 28,559c86,441 90,574 21,710c-49,98 -131,128 -194,71z"></path><path d="M2127,3910c-14,-11 -31,-36 -37,-54c-12,-36 -9,-44 42,-140c20,-37 21,-45 10,-107c-7,-37 -32,-130 -56,-207c-76,-237 -84,-350 -32,-456c38,-77 85,-116 139,-116c35,0 49,6 72,30c40,42 40,92 0,150c-45,64 -39,122 30,345c47,148 58,197 62,275c4,82 2,103 -17,155c-15,37 -39,76 -65,103c-36,35 -49,42 -82,42c-25,0 -50,-8 -66,-20z"></path><path d="M3024,3912c-53,-42 -57,-95 -13,-164c30,-46 31,-53 26,-116c-3,-39 -26,-135 -55,-227c-27,-88 -55,-193 -61,-234c-30,-192 73,-372 195,-340c42,12 65,40 71,88c5,34 0,49 -27,91c-31,48 -32,55 -27,119c3,37 24,123 46,192c62,193 74,247 75,340c0,77 -3,92 -32,152c-42,84 -80,117 -135,117c-25,0 -51,-8 -63,-18z"></path><path d="M840,2764c-141,-21 -228,-61 -316,-146c-67,-64 -113,-145 -134,-235c-10,-44 -19,-57 -66,-95c-191,-151 -248,-431 -134,-663c57,-117 163,-207 420,-358c1029,-602 2280,-694 3395,-247c326,130 745,373 849,493c93,106 141,245 134,387c-10,171 -78,298 -226,417c-13,11 -28,41 -37,77c-42,161 -176,302 -330,348c-70,20 -166,28 -234,18c-87,-12 -149,-40 -271,-119c-114,-74 -310,-175 -439,-226c-415,-162 -900,-207 -1345,-124c-304,57 -614,180 -878,351c-131,83 -181,106 -267,118c-67,10 -77,10 -121,4zM994,2531c23,-10 84,-46 136,-80c203,-133 526,-272 780,-336c387,-96 801,-105 1195,-24c304,63 639,200 897,368c52,33 110,67 130,76c55,22 172,20 228,-6c43,-19 120,-84 120,-101c0,-4 -17,-8 -37,-8c-131,0 -221,-34 -408,-154c-346,-223 -775,-371 -1205,-416c-122,-12 -418,-12 -540,0c-430,45 -859,193 -1205,416c-187,120 -277,154 -407,154c-21,0 -38,4 -38,8c0,14 74,79 110,98c19,9 49,21 65,25c43,11 132,1 179,-20zM795,2189c17,-7 77,-43 135,-80c312,-198 585,-316 920,-398c488,-119 947,-118 1435,4c298,75 604,204 840,355c176,113 220,132 314,132c66,0 91,-5 141,-28c198,-89 257,-341 120,-514c-16,-20 -85,-74 -152,-118c-656,-429 -1466,-639 -2243,-582c-619,46 -1224,249 -1733,582c-128,84 -168,125 -204,205c-27,62 -30,168 -5,240c32,92 129,182 227,210c52,15 162,11 205,-8z"></path></g></g></g></svg>